# xmcd
#
# Track frame offsets:
#	150
#	13515
#	29255
#	47202
#	64482
#	82937
#	95904
#	115297
#	125087
#	135762
#	166627
#	179077
#	196667
#
# Disc length: 2968 seconds
#
# Revision: 1
# Processed by: cddbd v1.4PL0 Copyright (c) Steve Scherf et al.
# Submitted via: EasyCDDAExtractor 5.0.6
#
DISCID=ac0b960d
DTITLE=Various Artist - Modern Blues From Boogie to Fusion
DYEAR=1998
DGENRE=Blues
TTITLE0=Baby Please Don't Go (Lightnin' Hopkins)
TTITLE1=43rd and S Park Blues (Magic Sam)
TTITLE2=Judgement Day (Son House)
TTITLE3=Dust My Broom (Howlin' Wolf)
TTITLE4=Howlin' Wolf (Muddy Waters)
TTITLE5=I Am the Blues (Memphis Slim)
TTITLE6=Ain't Nobody's Business (Jimmy Witherspoon)
TTITLE7=Rolling and Tumbling (Canned Heat)
TTITLE8=38, 32, 20 (Johnny Winter)
TTITLE9=Boogie Funk (Freddie King)
TTITLE10=I'm Tired (Savoy Brown)
TTITLE11=Mama Talk to Your Daughter (John Mayall)
TTITLE12=Guess Who (B. B. King)
EXTD=
EXTT0=
EXTT1=
EXTT2=
EXTT3=
EXTT4=
EXTT5=
EXTT6=
EXTT7=
EXTT8=
EXTT9=
EXTT10=
EXTT11=
EXTT12=
PLAYORDER=
